<?xml version="1.0" encoding="UTF-8" standalone="no"?>
<!-- Created with Inkscape (http://www.inkscape.org/) -->

<svg
   xmlns:dc="http://purl.org/dc/elements/1.1/"
   xmlns:cc="http://creativecommons.org/ns#"
   xmlns:rdf="http://www.w3.org/1999/02/22-rdf-syntax-ns#"
   xmlns:svg="http://www.w3.org/2000/svg"
   xmlns="http://www.w3.org/2000/svg"
   xmlns:sodipodi="http://sodipodi.sourceforge.net/DTD/sodipodi-0.dtd"
   xmlns:inkscape="http://www.inkscape.org/namespaces/inkscape"
   width="50.171661mm"
   height="48.859081mm"
   viewBox="0 0 177.7736 173.12273"
   id="svg2"
   version="1.1"
   inkscape:version="0.91 r13725"
   sodipodi:docname="Icon-Download.svg"
   inkscape:export-filename="/home/birgit/Dokumente/Brahma neu/Schule/moodle-Beratung/Lösung-Icon.png"
   inkscape:export-xdpi="30.171288"
   inkscape:export-ydpi="30.171288">
  <defs
     id="defs4" />
  <sodipodi:namedview
     id="base"
     pagecolor="#ffffff"
     bordercolor="#666666"
     borderopacity="1.0"
     inkscape:pageopacity="0.0"
     inkscape:pageshadow="2"
     inkscape:zoom="0.26256681"
     inkscape:cx="305.5677"
     inkscape:cy="540.17087"
     inkscape:document-units="px"
     inkscape:current-layer="layer1"
     showgrid="false"
     inkscape:window-width="1366"
     inkscape:window-height="687"
     inkscape:window-x="341"
     inkscape:window-y="1152"
     inkscape:window-maximized="1"
     showguides="true"
     inkscape:guide-bbox="true"
     fit-margin-top="0"
     fit-margin-left="0"
     fit-margin-right="0"
     fit-margin-bottom="0">
    <sodipodi:guide
       position="-697.27556,-82.600471"
       orientation="0,1"
       id="guide4285" />
  </sodipodi:namedview>
  <metadata
     id="metadata7">
    <rdf:RDF>
      <cc:Work
         rdf:about="">
        <dc:format>image/svg+xml</dc:format>
        <dc:type
           rdf:resource="http://purl.org/dc/dcmitype/StillImage" />
        <dc:title></dc:title>
      </cc:Work>
    </rdf:RDF>
  </metadata>
  <g
     inkscape:label="Ebene 1"
     inkscape:groupmode="layer"
     id="layer1"
     transform="translate(2093.7897,-556.98424)">
    <path
       style="fill:#000000"
       d=""
       id="path4173"
       inkscape:connector-curvature="0" />
    <g
       id="g4359"
       transform="matrix(0.28767836,0,0,0.28767836,-1494.5383,279.53106)"
       inkscape:export-xdpi="30"
       inkscape:export-ydpi="30">
      <path
         sodipodi:nodetypes="csssscssscscssssssscssssscscssssssssssccsssscscs"
         inkscape:connector-curvature="0"
         id="path4336"
         d="m -1963.0631,1427.2367 c -33.1495,-5.3983 -56.4463,-16.371 -77.5079,-36.506 -27.9647,-26.7345 -42.4894,-60.3506 -42.4894,-98.3381 0,-38.1646 15.4655,-73.3472 43.7312,-99.4847 12.6865,-11.7313 28.6631,-21.3156 47.7661,-28.6548 l 5,-1.921 0.6418,-12.9697 c 0.7328,-14.8109 1.8942,-21.456 5.8496,-33.4698 15.4349,-46.8805 52.2581,-80.0887 101.0086,-91.0926 8.9542,-2.0212 13.0764,-2.362 28,-2.3149 11.8879,0.038 19.6021,0.5405 24.0549,1.5684 l 6.5549,1.5131 5.9451,-7.1356 c 21.7969,-26.16199 53.4904,-44.62064 88.9424,-51.8011 9.1223,-1.84762 14.1644,-2.21842 29.5027,-2.16961 16.3657,0.0521 19.9219,0.37493 30.8252,2.7985 41.7584,9.28192 75.4393,32.47652 98.5884,67.89361 9.903,15.151 16.7788,31.964 21.2312,51.915 2.4606,11.0263 2.7633,14.4308 2.8723,32.3057 l 0.1218,19.9805 3.9682,2.5195 c 40.0422,25.4236 65.3008,64.0952 72.3114,110.7111 1.3917,9.2543 1.3917,32.3625 0,41.6169 -7.5828,50.4202 -37.4088,92.6607 -81.9185,116.0153 -12.3435,6.4767 -24.2957,10.8552 -39.5,14.4702 l -11,2.6154 -181,0.1709 c -99.55,0.094 -182.125,-0.012 -183.5,-0.2362 z m 371.5,-41.655 c 53.0095,-14.9006 87.4795,-59.2988 87.4901,-112.6891 0.01,-48.678 -30.9935,-92.0376 -77.5244,-108.4224 -8.0456,-2.8331 -7.8774,-2.2408 -4.1731,-14.6896 14.0777,-47.3105 -5.2044,-99.6182 -46.9851,-127.4586 -2.8559,-1.903 -9.3809,-5.465 -14.5,-7.9155 -56.5986,-27.09389 -124.6139,-3.7038 -152.8197,52.554 -1.7737,3.5377 -3.3466,6.5698 -3.4955,6.738 -0.1489,0.1682 -3.3581,-1.2537 -7.1315,-3.1598 -29.1716,-14.7358 -66.6513,-11.9639 -94.4761,6.9872 -36.8367,25.0889 -52.0277,73.4116 -35.9227,114.2702 l 2.0484,5.197 -5.7552,-0.632 c -11.7359,-1.2887 -32.6727,3.1843 -45.7382,9.7716 -32.736,16.5047 -53.517,50.0001 -53.517,86.2599 0,36.6553 20.4925,69.6599 53.5779,86.291 8.9491,4.4985 19.0725,7.7994 27.9221,9.1043 3.3323,0.4914 84.9201,0.8226 183.5,0.7448 l 177.5,-0.1401 z"
         style="fill:#000000" />
      <path
         sodipodi:nodetypes="ccscccscsccccscssccscsccssscssccsccssccccsscsscsscss"
         inkscape:connector-curvature="0"
         id="path4338"
         d="m -1928.712,1564.9672 c -2.0806,-0.646 -5.5435,-2.8832 -7.6954,-4.9716 -5.9065,-5.7325 -6.2215,-8.4613 -5.8463,-50.6442 0.309,-34.7346 0.4257,-36.6935 2.4138,-40.5 1.1489,-2.2 3.9996,-5.35 6.3347,-7 l 4.2458,-3 50.6726,-0.3075 c 27.87,-0.1691 51.66,0.058 52.8668,0.5041 1.2067,0.4464 9.5523,8.0098 18.5458,16.8075 12.9843,12.7018 17.6794,16.6418 22.7985,19.1322 7.9664,3.8757 21.9159,5.4051 25.9682,3.8319 17.0994,-4.2133 24.6053,-14.7736 33.2388,-23.3126 l 16.7603,-16.6556 46.7397,-0.3093 c 25.7068,-0.1701 49.5661,-0.02 53.0207,0.3329 7.72,0.7894 13.634,4.8042 16.9278,11.4918 2.1558,4.377 2.2097,5.3761 2.25,41.6517 0.038,34.267 -0.1059,37.5052 -1.844,41.5 -2.4132,5.5467 -6.4403,9.2856 -12.1148,11.2477 -4.0028,1.3842 -22.0136,1.5461 -163,1.4658 -118.33,-0.067 -159.4587,-0.388 -162.283,-1.2648 z m 251.3105,-27.335 c 4.8826,-3.3951 5.9042,-5.4589 5.9392,-11.9975 0.031,-5.7687 -0.2142,-6.4641 -3.401,-9.651 -6.5032,-6.5032 -16.0106,-5.4539 -21.3157,2.3526 -3.9806,5.8574 -2.3551,14.5288 3.5497,18.9362 3.4902,2.6051 11.719,2.7995 15.2278,0.3597 z m 54.1491,-0.059 c 5.0043,-3.3004 6.8234,-6.6034 6.8234,-12.3895 0,-4.4011 -0.4699,-5.8593 -2.6433,-8.2032 -6.51,-7.0208 -13.9841,-7.0541 -20.9449,-0.093 -3.8443,3.8443 -4.411,4.9619 -4.4052,8.6881 0.012,7.8179 6.0567,13.7632 13.9934,13.7632 2.623,0 5.6164,-0.7363 7.1766,-1.7653 z m -151.1766,-69.9994 c -1.925,-1.4972 -25.2125,-24.4417 -51.75,-50.9878 l -48.5444,-48.2656 c -8.418,-8.6596 -4.3976,-18.9561 6.0724,-18.4688 l 30.861,-0.5 30.861,-0.5 0.5,-50 c 0.4699,-46.9928 0.6142,-50.1685 2.3985,-52.8011 3.7607,-5.5487 4.773,-5.6993 38.3018,-5.6952 28.7334,0 31.0135,0.1341 33.9859,1.9465 5.9255,3.6131 5.7705,2.2251 6.3138,56.5498 l 0.5,50 29.5,0.5 c 32.7692,0.5554 33.6414,0.3066 37.3707,6.8709 2.2091,3.8885 1.0296,6.954 -0.3933,10.6884 -1.0615,2.7922 -96.4037,98.604 -101.1922,101.6907 -4.1666,2.6858 -10.584,2.2397 -14.7852,-1.0278 z"
         style="fill:#000000" />
      <path
         sodipodi:nodetypes="ccccc"
         inkscape:connector-curvature="0"
         id="path4340"
         d="m -1877.5172,1365.8291 76.8679,75.8985 -37.3908,-3.0914 -57.7056,-58.2944 z"
         style="fill:#ffffff;fill-opacity:1;fill-rule:evenodd;stroke:none;stroke-width:1px;stroke-linecap:butt;stroke-linejoin:miter;stroke-opacity:1" />
      <path
         inkscape:connector-curvature="0"
         id="path4342"
         d="m -1716.1519,1490.4535 -4.1218,-2.0609"
         style="fill:none;fill-rule:evenodd;stroke:#000000;stroke-width:1px;stroke-linecap:butt;stroke-linejoin:miter;stroke-opacity:1" />
      <path
         sodipodi:nodetypes="ccccc"
         inkscape:connector-curvature="0"
         id="path4340-5"
         d="m -1660.0403,1369.7733 -76.8679,75.8985 37.3908,-3.0914 57.7056,-58.2944 z"
         style="fill:#ffffff;fill-opacity:1;fill-rule:evenodd;stroke:none;stroke-width:1px;stroke-linecap:butt;stroke-linejoin:miter;stroke-opacity:1" />
    </g>
    <g
       id="g4452"
       transform="matrix(0.36160947,0,0,0.36160947,-1405.6123,360.68288)" />
  </g>
</svg>
